<svg xmlns="http://www.w3.org/2000/svg" height="1024" preserveAspectRatio="none" style="display: block;" version="1.1" viewBox="0 0 2048 2048" width="1024">
<defs>
	<linearGradient gradientUnits="userSpaceOnUse" id="Gradient1" x1="527.422" x2="353.977" y1="1275.99" y2="1320.05">
		<stop class="stop0" offset="0" stop-color="rgb(28,45,59)" stop-opacity="1"></stop>
		<stop class="stop1" offset="1" stop-color="rgb(41,77,110)" stop-opacity="1"></stop>
	</linearGradient>
	<linearGradient gradientUnits="userSpaceOnUse" id="Gradient2" x1="1482.6" x2="540.841" y1="892.058" y2="1247.82">
		<stop class="stop0" offset="0" stop-color="rgb(201,85,29)" stop-opacity="1"></stop>
		<stop class="stop1" offset="1" stop-color="rgb(254,125,42)" stop-opacity="1"></stop>
	</linearGradient>
</defs>
<path d="M 0 0 L 2048 0 L 2048 2048 L 0 2048 L 0 0 z" fill="rgb(33,40,46)" transform="translate(0,0)"></path>
<path d="M 1130.96 756.51 C 1130.28 749.777 1129.36 710.924 1132.86 707.295 C 1133.03 708.626 1133.2 709.958 1133.37 711.29 L 1134.97 712.304 C 1153.4 708.674 1182.6 714.797 1202.23 709.601 C 1206.62 708.441 1206.8 703.601 1214 705.787 C 1216.08 707.896 1216.27 707.738 1216.97 710.54 C 1231.84 722.744 1253.12 736.482 1269.21 747.94 L 1268.94 899.76 C 1222.18 929.68 1172.14 964.187 1126.27 995.91 C 1103.79 1011.63 1081 1026.91 1057.92 1041.75 C 1047 1048.9 1034.88 1057.46 1023.78 1063.94 C 1008.82 1055.97 994.595 1045.02 980.643 1035.43 C 936.409 1005.03 891.694 975.323 847.29 945.176 C 825.328 930.266 800.381 915.793 779.987 899.05 L 779.76 746.025 C 793.797 735.594 812.475 724.943 827.636 716.004 C 828.461 712.577 832.701 711.568 835.751 711.741 C 859.671 713.103 888.37 710.875 911.769 712.611 L 912.255 714.768 C 911.822 725.96 911.518 742.772 912.285 753.985 C 918.033 762.368 929.201 770.075 937.224 777.85 C 963.263 803.087 990.63 835.525 1017.82 859.072 C 1007.6 862.343 991.655 869.776 990.951 882.035 L 992.169 884.184 C 990.325 918.684 996.105 918.271 1023.3 934.595 C 1045.2 921.145 1074.97 902.724 1047.36 870.903 C 1043.81 866.803 1032.8 861.386 1030.64 856.982 C 1031.58 854.16 1118.86 769.152 1130.96 756.51 z" fill="rgb(76,115,137)" transform="translate(0,0)"></path>
<path d="M 827.636 716.004 C 828.461 712.577 832.701 711.568 835.751 711.741 C 859.671 713.103 888.37 710.875 911.769 712.611 L 912.255 714.768 C 911.822 725.96 911.518 742.772 912.285 753.985 C 918.033 762.368 929.201 770.075 937.224 777.85 C 963.263 803.087 990.63 835.525 1017.82 859.072 C 1007.6 862.343 991.655 869.776 990.951 882.035 C 988.327 891.145 988.646 904.924 993.561 913.721 C 1000.75 926.594 1014.62 929.596 1022.18 936.469 C 1020.6 947.504 1023.61 980.119 1021.16 984.861 C 1002.35 975.249 974.801 954.34 956.287 941.812 C 915.435 914.139 874.339 886.829 833.004 859.884 L 833.13 752.12 C 832.163 744.241 834.662 739.813 831.675 732.175 C 834.919 728.384 835.394 728.962 836.018 724.721 C 834.72 720.911 830.911 718.616 827.636 716.004 z" fill="rgb(76,115,137)" transform="translate(0,0)"></path>
<path d="M 827.636 716.004 C 828.461 712.577 832.701 711.568 835.751 711.741 C 859.671 713.103 888.37 710.875 911.769 712.611 L 912.255 714.768 C 895.741 714.878 879.226 714.888 862.711 714.799 C 854.066 723.465 841.623 734.212 834.262 743.721 C 833.482 744.728 833.219 750.437 833.13 752.12 C 832.163 744.241 834.662 739.813 831.675 732.175 C 834.919 728.384 835.394 728.962 836.018 724.721 C 834.72 720.911 830.911 718.616 827.636 716.004 z" fill="rgb(41,85,115)" transform="translate(0,0)"></path>
<path d="M 881.258 774.73 C 895.701 770.218 911.066 778.282 915.556 792.733 C 920.046 807.184 911.958 822.536 897.501 827.004 C 883.074 831.463 867.762 823.396 863.281 808.976 C 858.801 794.556 866.844 779.232 881.258 774.73 z" fill="rgb(37,59,78)" transform="translate(0,0)"></path>
<path d="M 886.244 782.563 C 895.473 781.056 904.211 787.211 905.9 796.408 C 907.589 805.605 901.609 814.463 892.447 816.333 C 886.357 817.577 880.07 815.432 876.01 810.726 C 871.95 806.02 870.75 799.487 872.873 793.645 C 874.996 787.804 880.11 783.565 886.244 782.563 z" fill="rgb(238,238,237)" transform="translate(0,0)"></path>
<path d="M 827.636 716.004 C 830.911 718.616 834.72 720.911 836.018 724.721 C 835.394 728.962 834.919 728.384 831.675 732.175 C 826.537 736.814 819.579 742.759 815.071 747.734 L 814.986 870.122 L 954.553 962.589 L 998.57 992.495 C 1004.24 996.345 1018.09 1006.01 1023.84 1008.93 C 1023.93 1024.28 1024.87 1049.33 1023.78 1063.94 C 1008.82 1055.97 994.595 1045.02 980.643 1035.43 C 936.409 1005.03 891.694 975.323 847.29 945.176 C 825.328 930.266 800.381 915.793 779.987 899.05 L 779.76 746.025 C 793.797 735.594 812.475 724.943 827.636 716.004 z" fill="rgb(239,157,72)" transform="translate(0,0)"></path>
<path d="M 1201.67 713.366 C 1204.55 710.95 1205.99 709.72 1209.15 707.737 C 1213.67 707.597 1212.39 707.751 1216.97 710.54 C 1231.84 722.744 1253.12 736.482 1269.21 747.94 L 1268.94 899.76 C 1222.18 929.68 1172.14 964.187 1126.27 995.91 C 1103.79 1011.63 1081 1026.91 1057.92 1041.75 C 1047 1048.9 1034.88 1057.46 1023.78 1063.94 C 1024.87 1049.33 1023.93 1024.28 1023.84 1008.93 C 1033.47 1004.69 1068.46 977.906 1079.48 970.805 C 1131.86 937.033 1184.37 898.18 1237.31 865.443 L 1237.1 744.726 C 1225 731.076 1216.01 724.623 1201.67 713.366 z" fill="rgb(206,84,27)" transform="translate(0,0)"></path>
<path d="M 1130.96 756.51 C 1130.28 749.777 1129.36 710.924 1132.86 707.295 C 1133.03 708.626 1133.2 709.958 1133.37 711.29 L 1134.97 712.304 C 1153.4 708.674 1182.6 714.797 1202.23 709.601 C 1206.62 708.441 1206.8 703.601 1214 705.787 C 1216.08 707.896 1216.27 707.738 1216.97 710.54 C 1212.39 707.751 1213.67 707.597 1209.15 707.737 C 1205.99 709.72 1204.55 710.95 1201.67 713.366 C 1216.01 724.623 1225 731.076 1237.1 744.726 L 1237.31 865.443 C 1184.37 898.18 1131.86 937.033 1079.48 970.805 C 1068.46 977.906 1033.47 1004.69 1023.84 1008.93 C 1018.09 1006.01 1004.24 996.345 998.57 992.495 L 954.553 962.589 L 814.986 870.122 L 815.071 747.734 C 819.579 742.759 826.537 736.814 831.675 732.175 C 834.662 739.813 832.163 744.241 833.13 752.12 L 833.004 859.884 C 874.339 886.829 915.435 914.139 956.287 941.812 C 974.801 954.34 1002.35 975.249 1021.16 984.861 C 1024.99 986.927 1033.38 980.789 1036.7 978.561 C 1062.09 961.511 1087.15 943.964 1112.37 926.654 C 1147.48 902.717 1182.78 879.075 1218.29 855.731 C 1219.48 820.416 1218.84 781.751 1218.78 746.317 C 1209.65 736.866 1188.68 722.502 1177.16 714.006 C 1162.38 713.861 1147.61 713.81 1132.83 713.853 C 1132.37 727.615 1132.9 742.425 1132.57 756.558 C 1126.26 765.49 1110.78 779.696 1102.92 787.845 C 1079.93 811.678 1054.95 833.954 1031.53 857.187 C 1056.93 872.038 1059.66 879.201 1058.7 906.983 C 1053.07 916.594 1033.15 934.083 1022.18 936.469 C 1014.62 929.596 1000.75 926.594 993.561 913.721 C 988.646 904.924 988.327 891.145 990.951 882.035 L 992.169 884.184 C 990.325 918.684 996.105 918.271 1023.3 934.595 C 1045.2 921.145 1074.97 902.724 1047.36 870.903 C 1043.81 866.803 1032.8 861.386 1030.64 856.982 C 1031.58 854.16 1118.86 769.152 1130.96 756.51 z" fill="rgb(37,59,78)" transform="translate(0,0)"></path>
<path d="M 1157.64 774.158 C 1172.7 773.143 1185.74 784.491 1186.83 799.546 C 1187.91 814.6 1176.61 827.696 1161.56 828.842 C 1146.42 829.995 1133.23 818.618 1132.14 803.471 C 1131.05 788.324 1142.49 775.179 1157.64 774.158 z" fill="rgb(37,59,78)" transform="translate(0,0)"></path>
<path d="M 1155.42 783.405 C 1161.54 781.835 1168.02 783.669 1172.41 788.208 C 1176.79 792.747 1178.4 799.291 1176.63 805.347 C 1174.85 811.403 1169.96 816.037 1163.81 817.484 C 1154.44 819.691 1145.05 813.942 1142.75 804.597 C 1140.45 795.252 1146.1 785.799 1155.42 783.405 z" fill="rgb(238,238,237)" transform="translate(0,0)"></path>
<path d="M 1297.93 811.482 L 1379.66 756.205 C 1393.3 746.889 1411.69 735.057 1424.09 725.043 L 1423.98 1066.52 C 1397.94 1085.92 1374.48 1098.41 1348.4 1115.87 L 1480.17 1115.69 C 1501.96 1115.64 1526.63 1114.81 1547.98 1115.48 C 1547.99 1135.63 1547.76 1156.51 1548.05 1176.6 L 1548.07 1192.25 L 1548.17 1356.56 C 1471.63 1354.43 1389.47 1356.26 1312.52 1356.39 L 1313.07 1343.73 C 1386.77 1343.01 1462.53 1343.99 1536.42 1344.01 C 1537.29 1319.6 1536.66 1291.68 1536.59 1267.01 L 1536.24 1128.07 L 512.608 1127.96 C 512.724 1134.83 512.777 1141.69 512.768 1148.55 L 511.998 1163.77 C 509.779 1163.53 502.378 1162.52 500.817 1163.05 L 500.825 1148.74 L 500.855 1114.92 L 693.696 1115.2 C 675.724 1101.74 646.006 1083.5 626.562 1070.73 C 627.707 955.951 625.184 839.647 627.09 725.386 C 644.749 736.456 674.061 760.22 691.369 773.391 C 707.873 785.949 741.994 809.831 755.919 823.165 C 756.395 852.245 756.148 882.122 756.255 911.269 C 730.732 897.544 701.298 876.414 673.672 861.157 C 673.221 870.667 673.353 881.596 673.24 891.217 C 696.848 908.097 726.327 922.444 749.526 940.708 C 753.993 944.224 753.584 944.717 754.013 949.318 L 753.985 972.055 L 754.019 1004.12 L 754.035 1025.79 C 730.735 1010.3 698.215 990.366 673.972 976.394 L 673.93 1008.14 C 683.402 1014.31 750.647 1055.23 753.247 1058.94 C 753.037 1064.17 752.815 1069.06 752.889 1074.3 L 752.741 1114.99 L 1300.07 1114.6 L 1300.1 1080.11 L 1299.95 1056.52 C 1302.06 1054.72 1307.69 1051.51 1310.3 1049.84 C 1334.47 1034.32 1357.17 1016.76 1381.18 1000.98 L 1381 972.099 C 1361.63 985.73 1341.4 997.881 1322.72 1012.59 C 1316.36 1017.61 1307.68 1024.63 1300.88 1028.35 C 1300.26 1022.44 1300.48 1011.2 1300.42 1004.89 L 1300.14 972.071 L 1300.05 951.188 C 1300 948.967 1299.48 944.038 1301.06 942.903 C 1308.86 937.31 1317.7 931.332 1325.53 925.932 L 1383.03 886.295 C 1382.89 874.12 1382.81 861.943 1382.81 849.767 C 1351.88 870.067 1327.91 887.28 1298.09 908.472 L 1297.93 811.482 z" fill="url(#Gradient2)" transform="translate(0,0)"></path>
<path d="M 512.608 1127.96 C 512.724 1134.83 512.777 1141.69 512.768 1148.55 L 511.998 1163.77 C 509.779 1163.53 502.378 1162.52 500.817 1163.05 L 500.825 1148.74 C 504.687 1148.24 508.048 1148.74 511.92 1149.08 C 511.942 1141.58 512.04 1135.43 512.608 1127.96 z" fill="rgb(158,128,119)" transform="translate(0,0)"></path>
<path d="M 1023.02 231.965 C 1080.17 273.563 1137.75 320.036 1193.53 363.872 L 1249.73 407.55 C 1257.6 413.634 1270.61 423.037 1277.65 429.243 C 1287.12 423.082 1298.76 413.732 1308.39 406.884 C 1335.43 387.453 1362.66 368.296 1390.08 349.417 L 1391.4 348.275 L 1393.95 345.843 L 1395.34 346.206 C 1398.28 352.523 1396.99 396.63 1397.02 407.269 L 1397.67 521.825 C 1429.3 547.518 1463.37 570.686 1495.34 595.859 C 1507.58 605.492 1536.39 625.331 1543.98 637.04 C 1544.46 713.982 1543.13 791.936 1544.11 868.651 C 1534.64 864.676 1520.07 856.243 1511.48 850.641 C 1510.42 828.181 1511.27 797.386 1511.4 774.476 L 1512.05 650.385 C 1504.08 642.481 1486.69 630.016 1477.47 622.352 C 1445.73 595.956 1412.02 572.277 1379.18 547.424 C 1294.56 483.552 1210.67 418.731 1127.52 352.971 C 1106.16 336.175 1084.7 319.493 1063.16 302.925 C 1050.4 293.074 1035.48 282.186 1023.65 271.62 C 1012.34 279.523 1001.81 288.333 990.991 296.897 C 861.091 399.728 731.286 502.657 599.797 603.464 C 578.798 619.563 559.064 636.095 537.092 650.96 C 538.162 712.554 536.995 775.024 538.455 836.3 C 538.22 837.299 537.984 838.298 537.749 839.297 C 530.04 845.788 512.785 857.582 505.033 862.821 L 505.021 637.211 C 516.057 627.474 536.755 612.816 549.267 603.157 C 584.087 576.686 618.668 549.901 653.005 522.806 L 653.032 391.883 C 653.036 385.006 652.577 347.376 653.826 342.908 L 655.258 342.845 L 658.639 346.225 L 660.471 347.519 C 676.044 356.134 702.012 376.456 717.475 387.364 C 735.285 399.929 757.836 414.627 774.738 427.671 C 793.517 411.346 814.811 394.914 834.676 379.911 C 898.379 331.797 959.279 279.992 1023.02 231.965 z" fill="rgb(102,187,233)" transform="translate(0,0)"></path>
<path d="M 653.005 522.806 L 653.032 391.883 C 653.036 385.006 652.577 347.376 653.826 342.908 L 655.258 342.845 L 658.639 346.225 L 660.471 347.519 C 676.044 356.134 702.012 376.456 717.475 387.364 C 735.285 399.929 757.836 414.627 774.738 427.671 C 761.908 441.476 739.439 452.781 728.658 464.899 C 727.474 469.286 712.578 481.716 708.033 482.109 C 689.11 494.917 672.313 510.111 653.005 522.806 z" fill="rgb(33,136,215)" transform="translate(0,0)"></path>
<path d="M 660.471 347.519 C 676.044 356.134 702.012 376.456 717.475 387.364 C 735.285 399.929 757.836 414.627 774.738 427.671 C 761.908 441.476 739.439 452.781 728.658 464.899 L 685.543 390.397 C 678.348 378.041 666.521 359.793 660.471 347.519 z" fill="rgb(33,136,215)" transform="translate(0,0)"></path>
<path d="M 658.639 346.225 L 660.471 347.519 C 666.521 359.793 678.348 378.041 685.543 390.397 L 728.658 464.899 C 727.474 469.286 712.578 481.716 708.033 482.109 C 705.202 472.94 658.672 344.974 658.639 346.225 z" fill="rgb(122,207,240)" transform="translate(0,0)"></path>
<path d="M 1391.4 348.275 L 1393.95 345.843 L 1395.34 346.206 C 1398.28 352.523 1396.99 396.63 1397.02 407.269 L 1397.67 521.825 C 1387.93 516.774 1347.51 484.496 1337.84 476.478 C 1342.18 462.97 1348.51 448.607 1354.24 435.579 C 1366.52 407.631 1378.39 379.418 1391.7 351.941 C 1391.6 350.719 1391.5 349.497 1391.4 348.275 z" fill="rgb(33,136,215)" transform="translate(0,0)"></path>
<path d="M 1390.08 349.417 C 1386.79 357.875 1372.53 378.502 1366.6 387.106 C 1350.28 410.795 1333.54 436.22 1315.91 458.865 C 1307.42 452.399 1284.86 436.055 1277.65 429.243 C 1287.12 423.082 1298.76 413.732 1308.39 406.884 C 1335.43 387.453 1362.66 368.296 1390.08 349.417 z" fill="rgb(33,136,215)" transform="translate(0,0)"></path>
<path d="M 570.931 1381.27 L 601.703 1381.22 L 602.134 1446.59 C 609.999 1453.13 618.562 1459.73 626.74 1465.87 C 686.364 1510.63 744.641 1556.95 803.461 1602.76 C 846.952 1636.64 890.621 1670.29 934.467 1703.71 C 963.65 1726.27 994.715 1751.62 1024.83 1772.33 L 1316.89 1545.79 C 1356.43 1515.18 1400.61 1479.26 1440.82 1450.26 L 1440.96 1384.73 C 1451.97 1385.43 1463.69 1385.13 1474.78 1385.06 L 1474.81 1409.98 L 1474.34 1460.35 C 1450.26 1482.56 1417.4 1503.3 1393.65 1524.61 L 1393.21 1626.09 C 1393.26 1644.42 1394.24 1675.29 1392.84 1692.57 L 1392.74 1692.98 L 1391.73 1693.46 C 1380.26 1684.61 1355.86 1670.48 1342.24 1662.37 C 1321.6 1650.07 1292.02 1629.65 1270.95 1619.16 L 1024.52 1811.62 L 850.607 1677.51 L 801.724 1639.9 C 795.322 1634.92 783.466 1626.09 778.118 1620.79 C 764.544 1630.13 746.86 1639.76 732.328 1647.96 C 706.765 1662.33 681.111 1676.54 655.369 1690.59 C 653.481 1637.91 654.915 1578.25 654.693 1524.96 C 629.665 1503.64 597.562 1481.39 570.947 1459.59 L 570.931 1381.27 z" fill="rgb(102,187,233)" transform="translate(0,0)"></path>
<path d="M 1331.66 1573 C 1332.41 1572.15 1343.63 1563.55 1345.38 1562.2 C 1361.06 1550.07 1377.34 1535.58 1393.65 1524.61 L 1393.21 1626.09 C 1393.26 1644.42 1394.24 1675.29 1392.84 1692.57 L 1392.74 1692.98 L 1391.73 1693.46 C 1380.26 1684.61 1355.86 1670.48 1342.24 1662.37 C 1321.6 1650.07 1292.02 1629.65 1270.95 1619.16 C 1286.04 1608 1301.72 1595.02 1316.47 1583.25 C 1321.89 1580.05 1327.08 1577.31 1331.66 1573 z" fill="rgb(33,136,215)" transform="translate(0,0)"></path>
<path d="M 1270.95 1619.16 C 1286.04 1608 1301.72 1595.02 1316.47 1583.25 C 1333.12 1607.61 1349.98 1631.81 1367.06 1655.87 C 1372.76 1663.92 1385.39 1682.85 1391.4 1688.8 C 1391.94 1691.01 1391.6 1690.94 1392.84 1692.57 L 1392.74 1692.98 L 1391.73 1693.46 C 1380.26 1684.61 1355.86 1670.48 1342.24 1662.37 C 1321.6 1650.07 1292.02 1629.65 1270.95 1619.16 z" fill="rgb(33,136,215)" transform="translate(0,0)"></path>
<path d="M 1331.66 1573 C 1347.13 1601.97 1362.37 1631.06 1377.4 1660.26 C 1380.49 1666.28 1390.41 1683.5 1391.4 1688.8 C 1385.39 1682.85 1372.76 1663.92 1367.06 1655.87 C 1349.98 1631.81 1333.12 1607.61 1316.47 1583.25 C 1321.89 1580.05 1327.08 1577.31 1331.66 1573 z" fill="rgb(122,207,240)" transform="translate(0,0)"></path>
<path d="M 654.693 1524.96 C 674.913 1539.62 694.467 1555.74 714.474 1570.8 L 671.521 1664.81 L 672.943 1670.12 C 694.439 1644.61 717.866 1615.16 736.776 1588.06 C 747.83 1597.4 769.232 1611.99 778.118 1620.79 C 764.544 1630.13 746.86 1639.76 732.328 1647.96 C 706.765 1662.33 681.111 1676.54 655.369 1690.59 C 653.481 1637.91 654.915 1578.25 654.693 1524.96 z" fill="rgb(33,136,215)" transform="translate(0,0)"></path>
<path d="M 671.521 1664.81 L 672.943 1670.12 C 669.086 1675.24 666.446 1678.78 662.041 1683.46 C 665.455 1677.36 668.443 1671.09 671.521 1664.81 z" fill="rgb(122,207,240)" transform="translate(0,0)"></path>
<path d="M 511.998 1163.77 L 512.768 1148.55 C 514.406 1210.09 514.582 1280.19 513.696 1341.81 C 524.375 1341.88 539.297 1341.54 549.627 1342.19 L 550.066 1355.6 L 551.158 1355.78 C 551.281 1363.69 551.899 1387.1 550.573 1393.98 C 549.814 1398.05 550.038 1406.23 550.021 1410.67 C 524.201 1411.65 493.812 1410.98 467.661 1411.04 L 331.156 1411.98 C 361.75 1372.26 395.368 1333.01 424.582 1293.26 C 408.493 1275.61 393.135 1256.16 378.01 1237.64 C 361.413 1217.33 344.917 1197.4 329.443 1176.21 C 383.207 1175.62 446.2 1175.41 499.786 1176.88 C 501.225 1173.43 500.775 1167.17 500.817 1163.05 C 502.378 1162.52 509.779 1163.53 511.998 1163.77 z" fill="url(#Gradient1)" transform="translate(0,0)"></path>
<path d="M 329.443 1176.21 C 383.207 1175.62 446.2 1175.41 499.786 1176.88 C 499.939 1182.38 500.093 1187.5 499.596 1192.99 L 364.944 1193.84 C 391.879 1225.5 420.292 1260.16 446.626 1292.65 C 430.047 1315.28 412.383 1336.53 395.105 1358.56 C 387.298 1368.52 374.954 1383.26 368.522 1393.74 L 550.573 1393.98 C 549.814 1398.05 550.038 1406.23 550.021 1410.67 C 524.201 1411.65 493.812 1410.98 467.661 1411.04 L 331.156 1411.98 C 361.75 1372.26 395.368 1333.01 424.582 1293.26 C 408.493 1275.61 393.135 1256.16 378.01 1237.64 C 361.413 1217.33 344.917 1197.4 329.443 1176.21 z" fill="rgb(76,115,137)" transform="translate(0,0)"></path>
<path d="M 511.998 1163.77 L 512.768 1148.55 C 514.406 1210.09 514.582 1280.19 513.696 1341.81 C 524.375 1341.88 539.297 1341.54 549.627 1342.19 L 550.066 1355.6 C 533.954 1356.35 515.442 1355.96 499.143 1355.98 C 498.901 1301.65 499.052 1247.32 499.596 1192.99 C 500.093 1187.5 499.939 1182.38 499.786 1176.88 C 501.225 1173.43 500.775 1167.17 500.817 1163.05 C 502.378 1162.52 509.779 1163.53 511.998 1163.77 z" fill="rgb(76,115,137)" transform="translate(0,0)"></path>
<path d="M 735.559 618.254 C 768.46 592.516 801.153 566.516 833.637 540.256 C 856.132 522.358 878.969 505.299 901.343 487.215 C 901.099 538.129 900.23 595.189 901.792 645.934 L 826.094 645.469 L 826.192 690.61 C 818.621 695.876 809.033 702.93 801.424 707.813 C 786.356 718.59 771.179 729.213 755.895 739.682 L 756.025 796.99 C 723.498 770.03 688.241 746.165 655.533 719.474 C 647.623 713.019 640.199 706.066 631.638 700.464 C 664.832 673.155 701.463 644.598 735.559 618.254 z" fill="rgb(241,118,44)" transform="translate(0,0)"></path>
<path d="M 735.559 618.254 C 750.472 643.831 736.419 647.825 754.268 672.517 C 755.512 666.725 757.664 657.961 758.451 652.331 C 774.75 671.036 780.073 688.155 801.424 707.813 C 786.356 718.59 771.179 729.213 755.895 739.682 L 756.025 796.99 C 723.498 770.03 688.241 746.165 655.533 719.474 C 647.623 713.019 640.199 706.066 631.638 700.464 C 664.832 673.155 701.463 644.598 735.559 618.254 z" fill="rgb(206,84,27)" transform="translate(0,0)"></path>
<path d="M 926.182 631.425 L 1116.12 631.659 L 1116.04 749.484 C 1104.35 758.632 1080.03 785.592 1068.93 797.318 C 1055.11 811.723 1038.02 829.105 1023.34 842.513 C 994.103 811.049 957.143 775.546 926.441 744.377 C 926.064 706.728 925.978 669.076 926.182 631.425 z" fill="rgb(241,118,44)" transform="translate(0,0)"></path>
<path d="M 953.567 446 C 954.768 444.725 968.292 433.915 969.556 433.205 C 977.989 428.475 1020.93 387.141 1027.31 390.825 C 1045.33 404.983 1068.08 422.802 1085.59 437.441 L 1086 541.79 C 1086.03 554.667 1086.84 585.404 1084.7 596.47 C 1080.27 587.14 1077.09 582.833 1070.52 575.065 L 1026.96 575.012 C 972.371 574.873 984.104 569.15 955.826 613.911 C 949.25 623.824 920.653 610.478 913.11 620.89 C 907.907 628.072 916.643 640.047 908.165 645.827 L 901.792 645.934 C 900.23 595.189 901.099 538.129 901.343 487.215 C 907.233 480.632 945.051 452.502 953.567 446 z" fill="rgb(241,118,44)" transform="translate(0,0)"></path>
<path d="M 1026.96 575.012 L 1026.92 454.114 C 1026.91 436.17 1026.07 408.113 1027.31 390.825 C 1045.33 404.983 1068.08 422.802 1085.59 437.441 L 1086 541.79 C 1086.03 554.667 1086.84 585.404 1084.7 596.47 C 1080.27 587.14 1077.09 582.833 1070.52 575.065 L 1026.96 575.012 z" fill="rgb(239,157,72)" transform="translate(0,0)"></path>
<path d="M 953.567 446 C 955.506 454.9 954.976 474.977 954.986 484.775 L 955.046 571.061 C 955.053 579.252 954.61 606.692 955.826 613.911 C 949.25 623.824 920.653 610.478 913.11 620.89 C 907.907 628.072 916.643 640.047 908.165 645.827 L 901.792 645.934 C 900.23 595.189 901.099 538.129 901.343 487.215 C 907.233 480.632 945.051 452.502 953.567 446 z" fill="rgb(239,157,72)" transform="translate(0,0)"></path>
<path d="M 1022.37 1341.84 C 1044.17 1341.8 1068.33 1341.3 1089.95 1341.87 C 1089.65 1405.59 1089.74 1469.32 1090.25 1533.05 C 1071.17 1547.18 1043.8 1568.47 1024.31 1583.56 C 1023.64 1583.58 1022.97 1583.6 1022.3 1583.61 L 1021.77 1582.99 C 997.579 1566.05 976.575 1547.9 953.957 1531.78 L 955.022 1341.92 L 1022.37 1341.84 z" fill="rgb(206,84,27)" transform="translate(0,0)"></path>
<path d="M 955.022 1341.92 L 1022.37 1341.84 L 1022.02 1499.43 C 1022.01 1523.64 1023.29 1560.47 1021.77 1582.99 C 997.579 1566.05 976.575 1547.9 953.957 1531.78 L 955.022 1341.92 z" fill="rgb(241,118,44)" transform="translate(0,0)"></path>
<path d="M 1015.65 306.755 C 1015.71 306.815 1015.78 306.867 1015.83 306.933 C 1019.25 311.053 1017.26 361.461 1017.24 370.012 C 1005.16 375.985 989.996 388.56 979.341 397.197 C 947.175 424.483 911.458 448.532 879.042 475.233 C 822.4 521.889 764.471 566.607 706.958 612.164 C 684.347 630.074 662.817 649.645 639.308 666.528 C 631.393 672.212 620.926 681.774 612.318 685.521 C 605.986 682.15 595.829 673.697 589.811 668.999 C 583.501 663.926 577.735 659.843 571.09 655.191 C 597.692 633.38 625.056 613.399 652.212 592.374 C 700.578 554.157 749.294 516.384 798.353 479.06 C 836.618 449.509 873.328 419.513 910.756 388.958 C 943.368 362.334 985.104 335.306 1015.65 306.755 z" fill="rgb(76,115,137)" transform="translate(0,0)"></path>
<path d="M 1085.59 437.441 L 1093.42 444.091 C 1111.88 457.767 1130.12 471.742 1148.13 486.012 C 1191.7 518.624 1237.27 558.765 1281.86 589.64 C 1265.76 604.695 1230.15 632.263 1211.61 646.437 C 1205.33 643.616 1158.09 645.699 1148.06 645.928 L 1133.01 646.019 C 1132.93 640.229 1133.13 634.39 1133.26 628.596 C 1118.79 614.456 1113.75 618.214 1095.53 616.153 C 1093.97 615.977 1093.38 613.819 1092.53 612.254 C 1088.91 606.238 1087.48 602.951 1084.7 596.47 C 1086.84 585.404 1086.03 554.667 1086 541.79 L 1085.59 437.441 z" fill="rgb(241,118,44)" transform="translate(0,0)"></path>
<path d="M 1085.59 437.441 L 1093.42 444.091 C 1111.88 457.767 1130.12 471.742 1148.13 486.012 C 1147.8 539.316 1147.78 592.623 1148.06 645.928 L 1133.01 646.019 C 1132.93 640.229 1133.13 634.39 1133.26 628.596 C 1118.79 614.456 1113.75 618.214 1095.53 616.153 C 1093.97 615.977 1093.38 613.819 1092.53 612.254 C 1088.91 606.238 1087.48 602.951 1084.7 596.47 C 1086.84 585.404 1086.03 554.667 1086 541.79 L 1085.59 437.441 z" fill="rgb(239,157,72)" transform="translate(0,0)"></path>
<path d="M 1085.59 437.441 L 1093.42 444.091 C 1092.93 460.97 1094 608.95 1092.53 612.254 C 1088.91 606.238 1087.48 602.951 1084.7 596.47 C 1086.84 585.404 1086.03 554.667 1086 541.79 L 1085.59 437.441 z" fill="rgb(241,118,44)" transform="translate(0,0)"></path>
<path d="M 694.789 1380.71 L 731.771 1380.88 C 778 1418.99 828.358 1455.3 876.145 1491.57 C 890.538 1502.49 906.172 1512.31 920.367 1523.57 C 943.641 1542.02 966.315 1561.18 990.076 1579.03 C 999.676 1586.17 1011.21 1595.9 1021.76 1601.42 C 1024.45 1616.34 1022.09 1655.07 1022.43 1672.45 C 1016.06 1668.4 998.454 1653.11 991.458 1647.56 L 920.747 1592.23 C 845.873 1533.91 770.597 1476.1 694.924 1418.82 L 694.789 1380.71 z" fill="rgb(76,115,137)" transform="translate(0,0)"></path>
<path d="M 1021.76 1601.42 C 1039.3 1592.24 1085.86 1554.62 1104.28 1540.7 L 1254.03 1428.94 C 1270.11 1416.86 1290.73 1399.49 1308.06 1389.6 C 1313.63 1386.41 1341.51 1387.7 1350.18 1387.43 L 1350.35 1419.81 L 1129.38 1588.93 L 1053.19 1648.33 C 1046.51 1653.51 1028.31 1668.75 1022.43 1672.45 C 1022.09 1655.07 1024.45 1616.34 1021.76 1601.42 z" fill="rgb(41,85,115)" transform="translate(0,0)"></path>
<path d="M 629.087 1379.96 L 677.794 1380.11 L 677.733 1425.3 C 687.879 1433.96 700.566 1442.91 711.362 1451.18 L 789.952 1510.77 C 838.615 1547.74 886.814 1586.54 935.29 1623.95 L 993.26 1668.56 C 1001 1674.55 1017.15 1686.48 1023.5 1692.89 C 1020.04 1705.74 1023.47 1729.18 1021.95 1741.8 C 1010.23 1731.98 996.697 1722.29 984.705 1712.45 C 937.756 1673.89 888.598 1638.47 840.614 1601.43 L 714.391 1503.63 C 686.065 1481.58 657.975 1459.03 629.056 1437.76 L 629.087 1379.96 z" fill="rgb(241,118,44)" transform="translate(0,0)"></path>
<path d="M 1511.48 850.641 C 1520.07 856.243 1534.64 864.676 1544.11 868.651 C 1586.54 891.738 1627.85 920.4 1669.82 944.561 C 1675.1 947.599 1681.04 951.238 1684.16 956.569 L 1678.34 959.897 C 1652.16 976.511 1625.24 993.058 1598.54 1008.85 C 1584.89 1016.94 1557.75 1036.69 1545.04 1042.61 L 1545.03 1092.84 L 1510.58 1092.9 L 1510.66 1064.04 C 1511.19 1038.64 1510.85 1012.31 1511.08 986.763 C 1511.3 966.359 1511.35 945.953 1511.24 925.548 C 1510.72 902.957 1510.46 872.988 1511.48 850.641 z" fill="rgb(33,136,215)" transform="translate(0,0)"></path>
<path d="M 1511.08 986.763 C 1528.3 984.146 1552.17 977.521 1570.12 974.026 C 1606.04 967.031 1641.69 961.362 1678.34 959.897 C 1652.16 976.511 1625.24 993.058 1598.54 1008.85 C 1584.89 1016.94 1557.75 1036.69 1545.04 1042.61 L 1545.03 1092.84 L 1510.58 1092.9 L 1510.66 1064.04 C 1511.19 1038.64 1510.85 1012.31 1511.08 986.763 z" fill="rgb(33,136,215)" transform="translate(0,0)"></path>
<path d="M 1510.66 1064.04 C 1522.03 1056.9 1533.35 1049.15 1545.04 1042.61 L 1545.03 1092.84 L 1510.58 1092.9 L 1510.66 1064.04 z" fill="rgb(102,187,233)" transform="translate(0,0)"></path>
<path d="M 1511.24 925.548 L 1511.82 920.043 C 1515.42 917.454 1540.8 926.455 1547.15 928.036 C 1580.9 936.437 1615.12 942.943 1649.1 950.325 C 1660.56 952.827 1672.88 953.627 1684.16 956.569 L 1678.34 959.897 C 1641.69 961.362 1606.04 967.031 1570.12 974.026 C 1552.17 977.521 1528.3 984.146 1511.08 986.763 C 1511.3 966.359 1511.35 945.953 1511.24 925.548 z" fill="rgb(102,187,233)" transform="translate(0,0)"></path>
<path d="M 538.455 836.3 C 540.064 853.854 539.895 897.972 539.222 916.557 C 538.749 934.867 538.466 958.769 539.076 977.099 C 539.549 1003.24 540.091 1038.31 539.173 1064.51 C 538.83 1073.42 539.081 1084.04 539.055 1093.09 L 505.058 1093.44 L 505.185 1043.05 C 501.799 1038.22 391.816 970.915 376.265 961.135 C 373.631 959.581 374.512 960.682 373.083 958.222 C 384.63 947.315 416.404 926.76 430.45 916.639 C 455.097 898.882 480.16 880.098 505.033 862.821 C 512.785 857.582 530.04 845.788 537.749 839.297 C 537.984 838.298 538.22 837.299 538.455 836.3 z" fill="rgb(33,136,215)" transform="translate(0,0)"></path>
<path d="M 376.265 961.135 C 412.932 963.126 446.877 967.224 483.285 971.57 C 497.578 973.276 525.604 977.268 539.076 977.099 C 539.549 1003.24 540.091 1038.31 539.173 1064.51 C 538.83 1073.42 539.081 1084.04 539.055 1093.09 L 505.058 1093.44 L 505.185 1043.05 C 501.799 1038.22 391.816 970.915 376.265 961.135 z" fill="rgb(33,136,215)" transform="translate(0,0)"></path>
<path d="M 505.185 1043.05 C 512.099 1045.55 531.579 1060.08 539.173 1064.51 C 538.83 1073.42 539.081 1084.04 539.055 1093.09 L 505.058 1093.44 L 505.185 1043.05 z" fill="rgb(122,207,240)" transform="translate(0,0)"></path>
<path d="M 373.083 958.222 C 386.554 956.282 401.48 953.479 414.671 949.801 C 456.077 938.258 497.782 927.957 539.222 916.557 C 538.749 934.867 538.466 958.769 539.076 977.099 C 525.604 977.268 497.578 973.276 483.285 971.57 C 446.877 967.224 412.932 963.126 376.265 961.135 C 373.631 959.581 374.512 960.682 373.083 958.222 z" fill="rgb(122,207,240)" transform="translate(0,0)"></path>
<path d="M 1281.86 589.64 C 1322.62 622.71 1363.32 655.354 1405.42 686.712 C 1410.97 690.842 1417.43 696.093 1422.5 700.726 L 1297.52 786.672 C 1297.42 773.454 1297.44 760.235 1297.58 747.017 C 1286.28 736.225 1225.74 691.739 1212.1 684.838 C 1212.13 673.987 1212.6 656.747 1211.61 646.437 C 1230.15 632.263 1265.76 604.695 1281.86 589.64 z" fill="rgb(206,84,27)" transform="translate(0,0)"></path>
<path d="M 1440.7 692.41 C 1451.56 686.398 1478.53 669.17 1488.15 661.411 C 1486.86 678.56 1487.32 699.74 1487.31 717.145 L 1487.33 802.626 L 1488.21 1091.95 L 1440.83 1092.13 L 1440.7 804.981 L 1440.99 727.067 C 1441.02 721.123 1441.55 696.707 1440.7 692.41 z" fill="rgb(37,59,78)" transform="translate(0,0)"></path>
<path d="M 1373.16 1384.99 L 1415.82 1385.06 C 1415.79 1403.14 1415.4 1422.45 1415.78 1440.42 L 1233.96 1580.01 C 1215.35 1594.3 1196.39 1607.91 1177.88 1622.39 L 1087.45 1693.19 C 1068.27 1708.36 1043.49 1729.02 1023.44 1742.34 L 1021.95 1741.8 C 1023.47 1729.18 1020.04 1705.74 1023.5 1692.89 C 1028.13 1690.61 1031.76 1687.84 1035.96 1684.92 C 1062.27 1666.66 1086.96 1646.36 1112.34 1626.86 L 1265.99 1509.4 C 1299.41 1483.73 1338.08 1452.38 1373.16 1429.78 L 1373.16 1384.99 z" fill="rgb(206,84,27)" transform="translate(0,0)"></path>
<path d="M 1035.04 306.449 C 1052.19 324.529 1071.84 339.165 1091.45 354.387 C 1117.41 374.617 1143.64 394.515 1170.11 414.078 C 1192.52 430.849 1213.6 448.717 1235.65 465.869 C 1270.37 492.871 1306.64 518.499 1341.34 545.4 C 1333.04 553.948 1309.13 572.1 1298.88 579.005 L 1131.89 446.49 C 1101.06 422.259 1064.02 395.5 1034.98 370.114 C 1034.88 348.892 1034.9 327.67 1035.04 306.449 z" fill="rgb(76,115,137)" transform="translate(0,0)"></path>
<path d="M 560.231 673.382 C 566.445 676.196 596.256 700.615 603.633 706.515 L 604.751 1094.49 C 590.109 1094.87 574.776 1094.71 560.079 1094.78 L 560.231 673.382 z" fill="rgb(76,115,137)" transform="translate(0,0)"></path>
<path d="M 1115.02 1341.85 C 1163.85 1341.61 1218.8 1340.35 1267.13 1341.93 L 1267.13 1398.73 L 1202.43 1445.9 C 1173.37 1467.87 1144.48 1490.08 1115.78 1512.53 C 1115.87 1455.64 1115.62 1398.74 1115.02 1341.85 z" fill="rgb(206,84,27)" transform="translate(0,0)"></path>
<path d="M 784.499 1341.95 C 831.718 1340.99 881.652 1341.63 929.003 1341.96 L 928.984 1455.46 C 928.981 1469.18 929.729 1499.86 928.313 1512.21 C 889.906 1481.17 849.222 1452.24 810.286 1421.81 C 801.587 1415.01 792.849 1408.9 784.66 1401.43 C 783.877 1384.45 783.856 1358.77 784.499 1341.95 z" fill="rgb(241,118,44)" transform="translate(0,0)"></path>
<path d="M 1548.05 1176.6 C 1603.68 1175.59 1664.01 1175.58 1719.8 1176.08 C 1697.2 1205.22 1672.36 1233.51 1649.8 1262.74 C 1642.87 1271.72 1631.03 1284.96 1625.23 1293.55 C 1654.66 1332.71 1687.72 1370.59 1716.12 1410.31 C 1636.38 1411.2 1554.8 1409.9 1474.81 1409.98 L 1474.78 1385.06 C 1463.69 1385.13 1451.97 1385.43 1440.96 1384.73 C 1448.65 1383.91 1491.17 1383.1 1498.13 1384.25 C 1502.49 1389.23 1494.05 1392.82 1505.72 1393.11 C 1514.29 1393.32 1523.15 1392.7 1531.66 1392.96 C 1544.44 1391.86 1636.93 1392.12 1639.36 1390.59 C 1634.12 1381.5 1601.14 1302.68 1600.08 1294.91 C 1606.46 1290.33 1608.01 1284.76 1612.91 1279.3 C 1625.59 1265.15 1637.57 1248.73 1649.4 1234.28 C 1655.63 1226.68 1675.3 1199.39 1681.63 1194.7 L 1681.85 1194.17 L 1681.11 1193.22 C 1636.76 1193.18 1592.41 1192.85 1548.07 1192.25 L 1548.05 1176.6 z" fill="rgb(76,115,137)" transform="translate(0,0)"></path>
<path d="M 1531.66 1392.96 C 1544.44 1391.86 1636.93 1392.12 1639.36 1390.59 C 1634.12 1381.5 1601.14 1302.68 1600.08 1294.91 C 1606.46 1290.33 1608.01 1284.76 1612.91 1279.3 C 1625.59 1265.15 1637.57 1248.73 1649.4 1234.28 C 1655.63 1226.68 1675.3 1199.39 1681.63 1194.7 C 1678.46 1201.45 1661.37 1222.22 1655.97 1229.01 L 1604.37 1293.46 C 1628.59 1325.95 1655.07 1361.69 1680.48 1393.26 L 1577.86 1394.14 C 1567.38 1394.16 1540.38 1394.73 1531.66 1392.96 z" fill="rgb(41,85,115)" transform="translate(0,0)"></path>
<path d="M 1341.34 545.4 L 1441.14 623.189 C 1450.14 630.201 1481.4 653.841 1488.15 661.411 C 1478.53 669.17 1451.56 686.398 1440.7 692.41 C 1416.71 670.965 1390.2 650.946 1364.69 631.27 C 1342.74 614.346 1321.02 595.454 1298.88 579.005 C 1309.13 572.1 1333.04 553.948 1341.34 545.4 z" fill="rgb(41,85,115)" transform="translate(0,0)"></path>
<path d="M 1434.41 1173.02 C 1440.51 1172.94 1451.53 1171.02 1455.37 1175.36 L 1454.86 1180.23 C 1448.35 1214.81 1439.4 1256.27 1431.1 1290.37 L 1403.93 1290.52 C 1401.05 1273.37 1398.06 1256.23 1394.96 1239.12 C 1391.23 1253.72 1388.59 1275.21 1386.7 1290.34 L 1359.87 1290.26 C 1351.8 1251.13 1343.11 1212.12 1333.82 1173.26 L 1356.77 1173.11 C 1365.06 1201.97 1367.45 1219.59 1371.43 1248.61 C 1375.63 1222.76 1379.59 1199.6 1385.23 1173.77 L 1403.52 1173.78 C 1411.3 1205.76 1413.93 1227.32 1417.97 1259.83 C 1420.58 1233.34 1428.12 1198.79 1434.41 1173.02 z" fill="rgb(217,236,241)" transform="translate(0,0)"></path>
<path d="M 595.493 1173.66 C 608.825 1173.63 657.966 1171.92 666.568 1176 C 674.337 1185.84 672.844 1227.42 669.178 1240 C 668.017 1243.99 656.841 1244.03 653.33 1244.15 C 658.595 1259.78 665.501 1275.37 671.226 1291.03 C 665.986 1291.11 650.307 1292.02 646.545 1289.64 C 644.027 1283.7 631.774 1248.84 629.75 1247.18 C 626.353 1247.08 623.965 1246.71 620.797 1247.91 C 619.583 1252.03 620.232 1284.94 620.283 1291.94 L 596.102 1292.01 C 594.27 1281.18 594.903 1257.33 594.935 1245.48 C 594.873 1221.54 595.059 1197.59 595.493 1173.66 z" fill="rgb(217,236,241)" transform="translate(0,0)"></path>
<path d="M 633.763 1194.5 L 647.34 1194.5 L 647.372 1222.27 L 632.565 1222.28 L 620.261 1222.38 L 620.267 1194.58 L 633.763 1194.5 z" fill="rgb(37,59,78)" transform="translate(0,0)"></path>
<path d="M 741.333 1173.93 L 765.822 1173.92 L 765.925 1194.32 L 765.917 1285.37 L 759.2 1292.36 C 740.936 1292.79 714.911 1292.81 696.864 1291.86 C 694.191 1289.31 691.545 1285.97 689.138 1283.11 C 688.899 1246.73 688.846 1210.34 688.981 1173.96 L 713.041 1173.99 L 713.13 1269.97 L 741.033 1269.89 L 741.333 1173.93 z" fill="rgb(217,236,241)" transform="translate(0,0)"></path>
<path d="M 1272.19 1172.97 L 1302.4 1173.05 C 1308.22 1192.63 1312.99 1216.97 1318.2 1237.27 C 1321.74 1251.06 1328.6 1275.41 1330.5 1287.9 C 1326.26 1291.35 1313.5 1290.48 1307.43 1290.48 C 1306.34 1283.77 1303.87 1274.37 1302.3 1267.55 L 1272.65 1267.33 C 1270.9 1274.74 1269.56 1282.96 1268.17 1290.51 L 1243.54 1290.34 C 1253.58 1250.8 1261.17 1212.8 1272.19 1172.97 z" fill="rgb(217,236,241)" transform="translate(0,0)"></path>
<path d="M 1287.48 1202.99 C 1289.68 1208.74 1296.22 1239.77 1296.58 1245.95 C 1294.21 1247.55 1290.84 1247.03 1287.77 1247 C 1283.69 1247.12 1282.5 1247.05 1278.47 1246.5 L 1277.78 1245.44 C 1279.2 1234.22 1284.36 1214.25 1287.48 1202.99 z" fill="rgb(37,59,78)" transform="translate(0,0)"></path>
<path d="M 790.639 1173.12 C 811.755 1173.64 832.877 1173.89 853.999 1173.88 L 854.083 1194.21 L 805.045 1194.17 L 804.984 1219.12 C 818.658 1219.2 833.808 1217.9 847.121 1219.89 C 855.679 1221.65 857.223 1238.34 856.471 1244.93 C 854.814 1259.47 862.022 1284.53 845.832 1291.66 C 825.168 1292.3 802.028 1291.88 781.162 1291.92 C 781.762 1285.41 781.785 1277.64 781.959 1271.01 L 832.047 1270.99 L 832.072 1242 C 824.251 1242.02 790.604 1244.5 785.484 1238.58 C 782.19 1234.77 780.926 1218.07 781.549 1212.26 C 783.051 1198.27 776.548 1181.55 790.639 1173.12 z" fill="rgb(217,236,241)" transform="translate(0,0)"></path>
<path d="M 1007.62 1172.8 L 1033.07 1172.89 C 1027.57 1189.99 1019.03 1211.02 1012.67 1228.26 C 1002.6 1256.19 1005.35 1261.65 1005.99 1290.89 L 981.435 1290.81 C 981.247 1277.99 981.554 1264.46 981.649 1251.59 C 975.722 1243.03 956.227 1186 952.444 1173.37 L 976.133 1173.36 C 981.568 1187.84 986.788 1202.41 991.791 1217.05 C 995.475 1204.01 1002.79 1186.07 1007.62 1172.8 z" fill="rgb(217,236,241)" transform="translate(0,0)"></path>
<path d="M 1084.06 1173.43 C 1106.03 1173.19 1128 1173.28 1149.96 1173.7 L 1149.96 1193.25 C 1135.53 1193.73 1120.74 1193.53 1106.27 1193.48 C 1105.94 1219.11 1106.13 1245.13 1106.1 1270.79 L 1126.83 1270.9 L 1150.8 1270.96 L 1150.74 1290.77 L 1083.88 1290.85 C 1083.71 1252.25 1083.37 1211.94 1084.06 1173.43 z" fill="rgb(217,236,241)" transform="translate(0,0)"></path>
<path d="M 866.322 1173.12 L 940.107 1173.2 L 940.371 1193.9 L 914.645 1193.76 C 914.421 1217.67 914.321 1241.58 914.344 1265.5 L 914.324 1291.03 L 891.628 1290.94 L 891.187 1194.11 L 866.296 1194.16 L 866.322 1173.12 z" fill="rgb(217,236,241)" transform="translate(0,0)"></path>
<path d="M 1132.62 1057.92 C 1169.01 1057.49 1205.41 1057.36 1241.81 1057.54 C 1258.68 1057.53 1283.71 1058.18 1299.95 1056.52 L 1300.1 1080.11 C 1244.32 1080.06 1187.97 1078.99 1132.31 1079.51 C 1132.22 1072.47 1132.48 1064.99 1132.62 1057.92 z" fill="rgb(33,136,215)" transform="translate(0,0)"></path>
<path d="M 1164.81 1173.96 L 1187.11 1173.88 C 1187.21 1206.13 1187.55 1238.39 1188.13 1270.64 C 1203.06 1270.5 1217.99 1270.5 1232.92 1270.65 C 1231.96 1276.51 1231.39 1283.72 1230.77 1289.72 C 1228.48 1291.91 1171.74 1290.98 1164.39 1290.96 C 1164.73 1251.96 1164.87 1212.96 1164.81 1173.96 z" fill="rgb(217,236,241)" transform="translate(0,0)"></path>
<path d="M 753.247 1058.94 C 759.028 1057.52 802.363 1057.79 810.191 1057.98 C 844.234 1058.79 882.611 1056.8 916.042 1058.4 L 916.062 1079.08 L 809.491 1078.91 C 793.539 1078.89 775.016 1079.42 759.125 1078.04 C 756.727 1077.83 754.654 1075.85 752.889 1074.3 C 752.815 1069.06 753.037 1064.17 753.247 1058.94 z" fill="rgb(33,136,215)" transform="translate(0,0)"></path>
<path d="M 1174.28 1004.61 L 1300.42 1004.89 C 1300.48 1011.2 1300.26 1022.44 1300.88 1028.35 C 1293.83 1026.09 1265 1027.39 1255.6 1027.12 C 1219.69 1026.1 1176.76 1029.2 1141.59 1026.16 C 1151.95 1018.19 1162.87 1010.99 1174.28 1004.61 z" fill="rgb(76,115,137)" transform="translate(0,0)"></path>
<path d="M 754.019 1004.12 L 868.679 1003.89 L 902.977 1025.3 C 853.976 1025.07 802.458 1026.8 754.035 1025.79 L 754.019 1004.12 z" fill="rgb(33,136,215)" transform="translate(0,0)"></path>
<path d="M 549.627 1342.19 L 751.897 1343.05 C 753.353 1346.91 755.035 1351.06 756.154 1355 L 625.301 1355.42 C 604.26 1355.4 571.17 1354.35 551.158 1355.78 L 550.066 1355.6 L 549.627 1342.19 z" fill="rgb(206,84,27)" transform="translate(0,0)"></path>
<path d="M 906.094 663.483 C 907.816 663.567 908.528 663.837 910.216 664.226 C 913.129 668.672 911.773 691.051 911.637 698.268 L 852.75 698.293 C 851.003 698.282 850.538 698.047 848.813 697.663 C 846.065 693.462 847.217 670.881 847.294 663.86 C 866.895 663.835 886.495 663.709 906.094 663.483 z" fill="rgb(239,157,72)" transform="translate(0,0)"></path>
<path d="M 1136.58 663.312 C 1154.59 664.057 1173.84 663.778 1191.96 663.81 C 1192.01 670.959 1192.57 691.515 1191.36 697.273 L 1189.25 698.106 C 1170.73 697.245 1152.19 696.879 1133.66 697.009 C 1133.44 690.411 1132.27 668.713 1134.16 664.117 L 1136.58 663.312 z" fill="rgb(241,118,44)" transform="translate(0,0)"></path>
<path d="M 988.288 591.04 L 1059.29 591.096 C 1062.62 596.358 1072.84 609.499 1068.68 614.763 L 1063.25 614.968 L 977.957 614.937 C 980.786 606.847 984.688 598.846 988.288 591.04 z" fill="rgb(122,207,240)" transform="translate(0,0)"></path>
<path d="M 1019.99 869.598 C 1033.42 867.502 1046.01 876.704 1048.08 890.14 C 1050.16 903.576 1040.94 916.149 1027.5 918.209 C 1014.09 920.265 1001.55 911.068 999.473 897.657 C 997.399 884.246 1006.58 871.69 1019.99 869.598 z" fill="rgb(238,238,237)" transform="translate(0,0)"></path>
<path d="M 1249.14 951.188 L 1300.05 951.188 L 1300.14 972.071 L 1216.49 972.104 C 1227.3 964.987 1238.01 957.798 1249.14 951.188 z" fill="rgb(33,136,215)" transform="translate(0,0)"></path>
<path d="M 754.013 949.318 C 767.865 949.249 781.717 949.393 795.565 949.748 C 804.775 956.52 814.024 963.238 823.313 969.902 C 799.794 972.17 777.205 971.118 753.985 972.055 L 754.013 949.318 z" fill="rgb(33,136,215)" transform="translate(0,0)"></path>
<path d="M 343.357 945.083 C 349.536 943.251 356.068 946.574 358.227 952.646 C 360.385 958.719 357.415 965.419 351.466 967.897 C 347.326 969.623 342.571 968.921 339.106 966.073 C 335.64 963.225 334.031 958.696 334.921 954.3 C 335.812 949.904 339.057 946.358 343.357 945.083 z" fill="rgb(241,118,44)" transform="translate(0,0)"></path>
<path d="M 1704.23 946.386 C 1710.49 944.922 1716.74 948.818 1718.19 955.078 C 1719.64 961.339 1715.72 967.584 1709.46 969.014 C 1703.22 970.438 1697 966.544 1695.56 960.308 C 1694.12 954.071 1698 947.845 1704.23 946.386 z" fill="rgb(239,157,72)" transform="translate(0,0)"></path>
<metadata><recraft-signature>{"signed_by": "recraft", "signature_b64": "wjkvTnNmWed29GAH9O9e7AqR7kVLicA9NZNznYwQYeHZQ9MjgvezsTyeeqYxzD61mDUgXr5QSateycnRcCe/Aw==", "signing_algo": "Ed25519", "generation_timestamp": 1779343719, "identifier": "703406a1-ddf6-4510-9604-4251930f2a22"}</recraft-signature></metadata></svg>